 http://img683.imageshack.us/img683/6611/thecave2005.jpg

Country.......: USA, Germany
Genre.........: Horror, Thriller, Action, Adventure
Date release..: 26.08.2005 [World]
Director......: Bruce Hunt
Writers.......: Michael Steinberg, Tegan West
Duration......: 93 min.
More..........: http://www.imdb.com/title/tt0402901
Trailer.......: http://www.imdb.com/video/screenplay/vi2801074969
Trailer.......:

Pilot :
Once, somewhere in America is a cave. Flu researchers discovers it, and intend to study it. They go into the cave and notice that someone lives in this cave. What what can be, whether Batman or Spiderman?

Cats :
Cole Hauser 	... 	Jack McAllister
Eddie Cibrian 	... 	Tyler McAllister
Morris Chestnut 	... 	Top Buchanan
Lena Headey 	... 	Dr. Kathryn Jennings
Piper Perabo 	... 	Charlie
Rick Ravanello 	... 	Briggs
Daniel Dae Kim 	... 	Alex Kim
Kieran Darcy Smith 	... 	Strode
Marcel Iures 	... 	Dr. Nicolai
Vlad Radescu 	... 	Dr. Bacovia
Simon Kunz 	... 	Mike  Caver #1
David Kennedy 	... 	Ian  Caver #2
Alin Panc 	... 	Razvan  Caver #3
Zoltan Butuc 	... 	Corvin  Caver #4
Brian Steele 	... 	Creature Performer 

Data Technical :
!!! SAMPLE !!!
Audio.....: Lector Polish
Subtitles.: None
Format                           : AVI
Format/Info                      : Audio Video Interleave
File size                        : 300 MiB
Duration                         : 1h 33mn
Overall bit rate                 : 450 Kbps
Writing application              : VirtualDubMod 1.5.10.2 (build 2542/release)
Writing library                  : VirtualDubMod build 2542/release
Video
ID                               : 0
Format                           : MPEG-4 Visual
Format profile                   : Advanced Simple@L5
Format settings, BVOP            : Yes
Format settings, QPel            : No
Format settings, GMC             : No warppoints
Format settings, Matrix          : Default (H.263)
Muxing mode                      : Packed bitstream
Codec ID                         : XVID
Codec ID/Hint                    : XviD
Duration                         : 1h 33mn
Bit rate                         : 310 Kbps
Width                            : 640 pixels
Height                           : 360 pixels
Display aspect ratio             : 16:9
Frame rate                       : 25.000 fps
Color space                      : YUV
Chroma subsampling               : 4:2:0
Bit depth                        : 8 bits
Scan type                        : Progressive
Bits/(Pixel*Frame)               : 0.054
Stream size                      : 207 MiB (69%)
Writing library                  : XviD 1.2.1
Audio
ID                               : 1
Format                           : MPEG Audio
Format version                   : Version 1
Format profile                   : Layer 3
Mode                             : Joint stereo
Mode extension                   : MS Stereo
Codec ID                         : 55
Codec ID/Hint                    : MP3
Duration                         : 1h 33mn
Bit rate mode                    : Variable
Bit rate                         : 128 Kbps
Channel(s)                       : 2 channels
Sampling rate                    : 48.0 KHz
Stream size                      : 84.5 MiB (28%)
Alignment                        : Aligned on interleaves
Interleave, duration             : 24 ms (0.60 video frame)
Interleave, preload duration     : 390 ms
Writing library                  : LAME3.90.
Encoding settings                : -m j -V 4 -q 2 -lowpass 17.6 --abr 128

Screen : 
http://img535.imageshack.us/img535/1667/thecave2005s4.jpg 
http://img23.imageshack.us/img23/544/thecave2005s1.jpg 
http://img40.imageshack.us/img40/9369/thecave2005s2.jpg 
http://img12.imageshack.us/img12/2970/thecave2005s3.jpg